#!OML:ASF H:\Pregnant\Project 1\Capture day 1\Session 1\femalepreg.ASF
:FULLY-SPECIFIED
:DEGREES
1335
root 6.60501 19.0911 9.2464 -508.504 30.9862 184.178
lowerback -12.3857 1.47535 -6.37783
upperback -4.77338 3.4266 -4.75733
thorax 1.86651 1.97918 -0.903295
lowerneck -8.34272 6.86574 9.74842
upperneck 35.5953 15.463 -6.40119
head 15.0559 8.39046 -1.59567
rclavicle 1.86858e-014 2.22639e-014
rhumerus -52.3582 7.65193 -74.2501
rradius 55.7435
rwrist -6.6558
rhand -1.18862 -18.78
rfingers 7.12502
rthumb 24.4514 -47.2395
lclavicle 1.86858e-014 2.22639e-014
lhumerus -28.5655 -0.460415 61.1007
lradius 33.2526
lwrist 41.0985
lhand -23.0902 -0.80888
lfingers 7.12502
lthumb 3.35603 29.1445
rfemur -30.6746 19.223 14.3712
rtibia 27.5904
rfoot 21.401 1.79792
rtoes -2.65213
lfemur -70.0592 11.6226 -26.2577
ltibia 58.8207
lfoot -15.9399 7.14949
ltoes -24.3006
1336
root 6.60825 19.1495 9.19758 -508.827 31.1173 184.103
lowerback -12.4172 1.38467 -6.6202
upperback -4.77944 3.35475 -4.85615
thorax 1.87151 1.95041 -0.880796
lowerneck -8.3913 6.91304 9.75721
upperneck 35.806 15.5148 -6.1572
head 15.1484 8.44729 -1.47984
rclavicle 5.64548e-014 -4.13472e-014
rhumerus -52.2613 7.69905 -74.2223
rradius 55.738
rwrist -6.85309
rhand -1.34305 -18.8351
rfingers 7.12502
rthumb 24.3034 -47.3145
lclavicle 5.64548e-014 -4.13472e-014
lhumerus -28.4096 0.212121 60.7059
lradius 32.8266
lwrist 40.9887
lhand -24.2602 -0.828379
lfingers 7.12502
lthumb 2.22608 29.1398
rfemur -31.0032 18.996 14.4953
rtibia 29.3292
rfoot 20.6841 2.36331
rtoes -2.75532
lfemur -68.8523 11.5885 -26.2679
ltibia 57.7945
lfoot -15.7637 7.30848
ltoes -24.5319
1337
root 6.61122 19.2046 9.15018 -509.131 31.2326 184.052
lowerback -12.4466 1.30005 -6.82829
upperback -4.79368 3.28531 -4.94141
thorax 1.86823 1.92279 -0.863244
lowerneck -8.4148 6.95635 9.7696
upperneck 36.002 15.5637 -5.92413
head 15.2295 8.50371 -1.37077
rclavicle -5.1684e-014 -6.04305e-014
rhumerus -52.1542 7.72095 -74.1814
rradius 55.7428
rwrist -7.03916
rhand -1.59289 -18.8773
rfingers 7.12502
rthumb 24.0638 -47.3885
lclavicle -5.1684e-014 -6.04305e-014
lhumerus -28.2875 0.898188 60.3298
lradius 32.4642
lwrist 40.8493
lhand -25.4328 -0.900857
lfingers 7.12502
lthumb 1.09357 29.0761
rfemur -31.3959 18.7812 14.6495
rtibia 31.1929
rfoot 19.8102 2.91491
rtoes -2.98569
lfemur -67.6921 11.5447 -26.2482
ltibia 56.809
lfoot -15.579 7.47411
ltoes -24.782
1338
root 6.61384 19.2564 9.10406 -509.414 31.3271 184.027
lowerback -12.4767 1.22241 -6.99509
upperback -4.817 3.21866 -5.01302
thorax 1.85739 1.89645 -0.854246
lowerneck -8.40848 6.99412 9.78539
upperneck 36.1809 15.6108 -5.70882
head 15.2979 8.55984 -1.27145
rclavicle 2.78299e-015 2.06736e-014
rhumerus -52.0471 7.7137 -74.1266
rradius 55.7651
rwrist -7.20878
rhand -1.93333 -18.8979
rfingers 7.12502
rthumb 23.7373 -47.4519
lclavicle 2.78299e-015 2.06736e-014
lhumerus -28.1998 1.58227 59.9778
lradius 32.1666
lwrist 40.7056
lhand -26.5747 -1.03441
lfingers 7.12502
lthumb -0.00929468 28.9453
rfemur -31.8533 18.5817 14.8356
rtibia 33.1735
rfoot 18.7594 3.439
rtoes -3.36906
lfemur -66.5832 11.4866 -26.1956
ltibia 55.8686
lfoot -15.3872 7.64902
ltoes -25.0565
1339
root 6.61614 19.305 9.05906 -509.674 31.3992 184.026
lowerback -12.511 1.15095 -7.12064
upperback -4.84767 3.15405 -5.07109
thorax 1.84269 1.87082 -0.853731
lowerneck -8.37474 7.02705 9.80454
upperneck 36.3434 15.6603 -5.51774
head 15.3554 8.61645 -1.18377
rclavicle 3.77691e-014 -5.24792e-014
rhumerus -51.9439 7.67732 -74.0578
rradius 55.8107
rwrist -7.35829
rhand -2.3589 -18.8905
rfingers 7.12502
rthumb 23.3291 -47.4969
lclavicle 3.77691e-014 -5.24792e-014
lhumerus -28.1441 2.25281 59.6547
lradius 31.9332
lwrist 40.5842
lhand -27.6561 -1.23003
lfingers 7.12502
lthumb -1.05379 28.7471
rfemur -32.3752 18.4003 15.05
rtibia 35.2602
rfoot 17.5349 3.92274
rtoes -3.90941
lfemur -65.5249 11.4097 -26.112
ltibia 54.972
lfoot -15.1895 7.83556
ltoes -25.3564
1340
root 6.61817 19.3508 9.01498 -509.915 31.45 184.04
lowerback -12.5518 1.08431 -7.21069
upperback -4.88189 3.09099 -5.11857
thorax 1.82916 1.84547 -0.861471
lowerneck -8.32273 7.05713 9.83155
upperneck 36.4925 15.716 -5.35582
head 15.4072 8.67453 -1.10919
rclavicle 4.37326e-015 3.97569e-014
rhumerus -51.8424 7.60976 -73.9774
rradius 55.8813
rwrist -7.48574
rhand -2.86104 -18.8602
rfingers 7.12502
rthumb 22.8473 -47.5268
lclavicle 4.37326e-015 3.97569e-014
lhumerus -28.1125 2.89819 59.3625
lradius 31.7608
lwrist 40.5106
lhand -28.6569 -1.48324
lfingers 7.12502
lthumb -2.02039 28.4869
rfemur -32.9587 18.2397 15.2835
rtibia 37.4393
rfoot 16.1481 4.3521
rtoes -4.63453
lfemur -64.5109 11.3098 -26.004
ltibia 54.1127
lfoot -14.987 8.03524
ltoes -25.6745
1341
root 6.62006 19.3942 8.9717 -510.146 31.4822 184.059
lowerback -12.6092 1.01702 -7.28135
upperback -4.89886 3.02521 -5.15335
thorax 1.84322 1.8166 -0.865994
lowerneck -8.30184 7.09651 9.85794
upperneck 36.6342 15.7891 -5.22334
head 15.468 8.73351 -1.0414
rclavicle 5.28767e-014 -3.65764e-014
rhumerus -51.7022 7.51582 -73.8819
rradius 55.9738
rwrist -7.59254
rhand -3.42967 -18.8177
rfingers 7.12502
rthumb 22.3016 -47.5507
lclavicle 5.28767e-014 -3.65764e-014
lhumerus -28.0726 3.54174 59.1062
lradius 31.6378
lwrist 40.4982
lhand -29.563 -1.78802
lfingers 7.12502
lthumb -2.89543 28.1721
rfemur -33.5983 18.1024 15.5235
rtibia 39.6949
rfoot 14.6333 4.71259
rtoes -5.51914
lfemur -63.5299 11.1828 -25.8819
ltibia 53.2799
lfoot -14.7787 8.2488
ltoes -26.0043
1342
root 6.62195 19.4356 8.92907 -510.376 31.499 184.069
lowerback -12.6691 0.950002 -7.34018
upperback -4.91546 2.95853 -5.18578
thorax 1.85956 1.78708 -0.874727
lowerneck -8.2776 7.13508 9.90026
upperneck 36.7745 15.8714 -5.11881
head 15.5336 8.79567 -0.985645
rclavicle -3.06128e-014 3.65764e-014
rhumerus -51.5647 7.39215 -73.7845
rradius 56.0951
rwrist -7.67866
rhand -4.05227 -18.7752
rfingers 7.12502
rthumb 21.7038 -47.5786
lclavicle -3.06128e-014 3.65764e-014
lhumerus -28.0443 4.14369 58.8797
lradius 31.5612
lwrist 40.5633
lhand -30.3635 -2.12999
lfingers 7.12502
lthumb -3.66852 27.8182
rfemur -34.2861 17.9899 15.7556
rtibia 42.0094
rfoot 13.0133 5.00051
rtoes -6.5592
lfemur -62.5684 11.0242 -25.758
ltibia 52.46
lfoot -14.5618 8.47625
ltoes -26.3415
1343
root 6.62394 19.4755 8.88709 -510.617 31.5025 184.054
lowerback -12.7291 0.879624 -7.4034
upperback -4.92389 2.88796 -5.21512
thorax 1.88442 1.75501 -0.878231
lowerneck -8.27161 7.1761 9.9493
upperneck 36.919 15.9643 -5.03619
head 15.6102 8.85952 -0.936243
rclavicle -5.56597e-014 -2.8625e-014
rhumerus -51.4183 7.2451 -73.6832
rradius 56.2468
rwrist -7.74843
rhand -4.71251 -18.7444
rfingers 7.12502
rthumb 21.0696 -47.6198
lclavicle -5.56597e-014 -2.8625e-014
lhumerus -28.0147 4.71674 58.6862
lradius 31.5197
lwrist 40.7021
lhand -31.0471 -2.49339
lfingers 7.12502
lthumb -4.32861 27.4424
rfemur -35.0122 17.9017 15.9674
rtibia 44.3639
rfoot 11.3144 5.21609
rtoes -7.76
lfemur -61.6126 10.8301 -25.6436
ltibia 51.6402
lfoot -14.3324 8.71611
ltoes -26.6822
